# xmcd
#
# Track frame offsets: 
#        150
#        18161
#        34702
#        49518
#        64197
#        78587
#        93814
#        110569
#        127018
#        144244
#        162255
#        178796
#        193612
#        208291
#        222681
#        237908
#        254663
#        271112
#
# Disc length: 3844 seconds
#
# Revision: 0
# Processed by: cddbd v1.5PL3 Copyright (c) Steve Scherf et al.
# Submitted via: ExactAudioCopy v0.95a3
#
DISCID=070f0212
DTITLE=Various Artist - PHMN0406
DYEAR=2004
DGENRE=Country
TTITLE0=Toby Keith - Whiskey Girl
TTITLE1=Gretchen Wilson - Redneck Woman
TTITLE2=Pinmonkey - Let's Kill Saturday Night
TTITLE3=Tracy Byrd - How'd I Wind Up In Jamaica
TTITLE4=Shannon Lawson - Everybody (Wants Something They Can't Have)
TTITLE5=Hank Williams Jr. - Why Can't We All Just Get A Long Neck?
TTITLE6=Chely Wright - Back Of The Bottom Drawer
TTITLE7=Jenkins, The - Blame It On Mama
TTITLE8=Josh Gracin - I Want To Live
TTITLE9=Toby Keith - Whiskey Girl VOCAL
TTITLE10=Gretchen Wilson - Redneck Woman VOCAL
TTITLE11=Pinmonkey - Let's Kill Saturday Night VOCAL
TTITLE12=Tracy Byrd - How'd I Wind Up In Jamaica VOCAL
TTITLE13=Shannon Lawson - Everybody (Wants Something They Can't Have) 
TTITLE13=VOCAL
TTITLE14=Hank Williams Jr. - Why Can't We All Just Get A Long Neck? VO
TTITLE14=CAL
TTITLE15=Chely Wright - Back Of The Bottom Drawer VOCAL
TTITLE16=Jenkins, The - Blame It On Mama VOCAL
TTITLE17=Josh Gracin - I Want To Live VOCAL
EXTD=
EXTT0=
EXTT1=
EXTT2=
EXTT3=
EXTT4=
EXTT5=
EXTT6=
EXTT7=
EXTT8=
EXTT9=
EXTT10=
EXTT11=
EXTT12=
EXTT13=
EXTT14=
EXTT15=
EXTT16=
EXTT17=
PLAYORDER=
